PathFileType	4	(X/Y/Z)	KinectSkeleton.trc																																																	
DataRate	CameraRate	NumFrames	NumMarkers	Units	OrigDataRate	OrigDataStartFrame	OrigNumFrames																																													
60	60	27	17	mm	60	248	300																																													
Frame#	Time	Neck			ShoulderMid			R.Shoulder			L.Shoulder			R.Elbow			L.Elbow			R.Wrist			L.Wrist			HipCenter			R.Hip			L.Hip			R.Knee			L.Knee			R.Ankle			L.Ankle			R.Foot			L.Foot		
		X1	Y1	Z1	X2	Y2	Z2	X3	Y3	Z3	X4	Y4	Z4	X5	Y5	Z5	X6	Y6	Z6	X7	Y7	Z7	X8	Y8	Z8	X9	Y9	Z9	X10	Y10	Z10	X11	Y11	Z11	X12	Y12	Z12	X13	Y13	Z13	X14	Y14	Z14	X15	Y15	Z15	X16	Y16	Z16	X17	Y17	Z17
																																																				
248	13.011	-1032.802	297.399	143.889	-1032.802	297.399	143.889	-975.1	241.985	276.674	-990.321	250.796	-8.691	-843.148	44.405	356.013	-987.968	37.404	-130.734	-855.462	191.2	207.833	-923.752	195.559	-14.818	-766.289	-80.421	91.771	-761.081	-89.183	164.203	-772.064	-70.705	11.446	-406.503	-106.489	187.433	-423.955	-106.606	-54.649	-313.47	-431.909	126.251	-302.785	-424.665	-56.38	-164.531	-468.084	121.755	-139.802	-458.379	-65.055
249	13.057	-1033.129	297.262	143.971	-1033.129	297.262	143.971	-975.455	241.881	276.797	-990.514	250.69	-8.606	-843.365	44.409	356.256	-987.639	37.206	-130.527	-855.847	191.24	208.095	-923.835	195.586	-14.652	-766.332	-80.452	91.818	-761.129	-89.225	164.257	-772.102	-70.723	11.485	-406.556	-107.117	187.671	-423.924	-106.834	-54.329	-314.864	-432.895	126.172	-303.386	-425.171	-56.002	-166.068	-469.714	121.647	-140.448	-459.229	-64.508
250	13.105	-1032.202	292.432	140.554	-1032.202	292.432	140.554	-979.746	242.104	278.527	-986.267	244.84	-11.715	-846.338	40.838	354.102	-981.791	28.678	-133.847	-859.144	194.974	210.497	-920.172	188.643	-15.307	-779.093	-103.303	101.465	-776.109	-111.455	174.838	-782.402	-94.262	20.097	-418.371	-130.195	203.214	-429.893	-126.855	-43.828	-347.294	-465.975	149.39	-318.48	-451.983	-35.103	-199.038	-510.746	147.326	-154.385	-489.074	-41.1
251	13.148	-1031.384	287.383	139.94	-1031.384	287.383	139.94	-971.428	235.239	273.941	-989.76	242.579	-13.109	-850.45	31.851	359.684	-979.118	26.506	-132.368	-797.17	158.845	201.203	-921.243	188.447	-16.554	-776.9	-106.22	102.029	-773.601	-113.458	175.098	-780.558	-98.193	20.998	-421.396	-160.376	214.409	-430.923	-149.354	-35.652	-356.338	-494.938	157.119	-327.797	-475.372	-28.58	-209.607	-541.312	149.39	-165.834	-516.365	-40.105
252	13.196	-1024.342	283.289	142.406	-1024.342	283.289	142.406	-957.474	225.853	273.486	-981.103	240.969	-12.964	-851.965	13.359	365.982	-979.614	20.427	-130.501	-756.098	156.517	241.754	-917.026	183.579	-14.481	-764.754	-114.279	108.573	-762.092	-119.703	182.686	-767.706	-108.265	26.384	-411.139	-196.126	224.953	-419.053	-183.512	-35.711	-339.643	-533.017	164.595	-330.991	-518.002	-26.717	-189.818	-572.69	147.973	-168.552	-561.007	-48.349
253	13.241	-1022.991	282.707	144.791	-1022.991	282.707	144.791	-951.171	224.804	273.47	-983.223	241.979	-12.303	-844.7	11.562	365.001	-979.547	20.671	-129.765	-735.168	141.881	237.029	-917.98	186.042	-15.343	-762.289	-115.754	108.338	-759.348	-121.13	182.642	-765.55	-109.792	25.938	-411.328	-213.063	226.474	-419.33	-199.61	-36.016	-333.605	-548.915	162.729	-337.146	-536.613	-30.553	-183.179	-587.624	145.397	-175.768	-584.84	-52.631
254	13.287	-1028.825	289.246	143.977	-1028.825	289.246	143.977	-968.927	238.865	283.706	-992.611	247.784	-16.001	-840.377	24.429	353.633	-978.822	20.279	-129.886	-857.892	202.765	232.036	-923.515	194.954	-19.61	-768.903	-119.87	116.448	-765.688	-123.604	192.098	-772.469	-115.73	32.555	-408.103	-207.847	223.525	-420.875	-203.992	-36.993	-339.964	-554.105	173.191	-340.669	-547.021	-18.644	-191.882	-610.522	161.182	-179.958	-609.369	-29.605
255	13.334	-1030.701	290.003	141.154	-1030.701	290.003	141.154	-970.315	243.182	282.712	-996.516	248.077	-19.06	-831.431	34.18	353.158	-976.831	18.195	-129.516	-860.905	206.205	223.515	-926.388	196.221	-20.629	-771.497	-123.02	124.661	-768.149	-124.445	200.685	-775.209	-121.439	40.354	-408.729	-207.03	232.753	-421.852	-210.636	-26.802	-346.471	-557.083	191.927	-342.462	-554.648	1.123	-200.296	-619.421	177.689	-183.18	-622.39	-9.475
256	13.382	-1034.343	293.316	142.777	-1034.343	293.316	142.777	-974.657	246.904	286.38	-997.397	252.166	-19.341	-829.26	36.951	352.413	-976.221	18.657	-129.096	-856.667	203.598	211.37	-926.923	198.353	-17.333	-773.031	-125.244	121.155	-770.526	-128.579	198.07	-775.808	-121.545	35.859	-406.944	-208.194	240.775	-415.966	-210.67	-20.958	-348.045	-562.291	192.481	-339.212	-560.036	1.872	-201.67	-629.673	182.112	-179.599	-632.891	-2.275
257	13.426	-1034.723	292.674	142.38	-1034.723	292.674	142.38	-974.318	247.031	285.5	-997.343	251.982	-19.277	-826.732	38.486	348.967	-975.096	19.162	-129.054	-856.535	205.112	209.083	-926.806	198.433	-17.018	-773.378	-124.792	121.249	-770.88	-128.084	198.011	-776.149	-121.141	36.124	-408.917	-210.43	242.647	-417.365	-212.191	-19.329	-349.962	-563.721	193.99	-340.493	-560.786	3.566	-204.099	-631.432	183.616	-181.351	-633.857	0.089
258	13.472	-1034.282	293.669	146.173	-1034.282	293.669	146.173	-972.557	246.722	288.541	-997.632	254.285	-16.208	-823.538	37.476	347.896	-977.106	22.131	-128.631	-855.457	204.989	209.013	-927.091	200.071	-14.604	-773.718	-124.829	122.269	-771.124	-128.337	199.136	-776.595	-120.94	37.027	-408.765	-211.574	243.704	-417.642	-213.143	-19.292	-348.809	-565.011	193.245	-342.326	-562.725	2.255	-202.793	-632.877	182.222	-183.53	-637.166	-1.449
259	13.522	-1034.885	294.761	150.666	-1034.885	294.761	150.666	-973.296	248.662	294.697	-1001.298	256.959	-14.379	-821.873	36.015	346.585	-978.894	21.732	-125.735	-852.624	200.132	200.259	-929.617	202.598	-12.044	-771.26	-127.249	119.491	-768.457	-132.297	196.999	-774.368	-121.652	33.538	-401.376	-209.501	243.761	-409.716	-207.954	-19.228	-345.042	-565.976	186.207	-335.857	-561.677	-4.422	-199.775	-638.965	175.469	-177.758	-641.415	-6.73
260	13.597	-1034.999	295.637	156.168	-1034.999	295.637	156.168	-974.043	249.441	301.429	-1003.49	259.805	-10.878	-820.202	34.899	347.831	-982.951	23.286	-124.199	-850.828	199.039	199.127	-931.859	204.229	-8.441	-767.931	-127.2	116.333	-764.492	-133.967	194.237	-771.746	-119.695	29.94	-393.536	-205.529	241.139	-402.512	-198.829	-21.494	-340.431	-563.854	175.989	-327.586	-555.181	-14.084	-196.547	-641.712	163.405	-170.136	-638.882	-17.072
261	13.644	-1034.263	292.384	163.966	-1034.263	292.384	163.966	-971.032	248.79	308.169	-1006.997	260.647	-4.156	-816.132	34.063	348.91	-987.158	26.371	-121.813	-851.253	198.523	201.764	-935.112	206.298	-5.152	-769.707	-131.436	111.677	-765.143	-140.258	189.27	-774.768	-121.653	25.63	-393.523	-209.189	232.873	-404.543	-193.272	-27.944	-343.6	-566.207	159.768	-326.394	-548.778	-29.8	-200.403	-644.957	146.219	-168.296	-630.962	-34.031
262	13.692	-1034.59	295.266	171.779	-1034.59	295.266	171.779	-966.196	250.441	314.836	-1007.012	265.877	2.889	-813.359	31.412	349.512	-985.09	30.141	-114.646	-850.626	198.534	204.075	-933.272	211.889	1.54	-765.734	-129.585	118.32	-760.546	-138.171	196.324	-771.488	-120.064	31.817	-387.866	-215.667	233.981	-400.747	-193.007	-30.311	-342.291	-574.844	158.68	-317.573	-549.382	-31.9	-198.671	-653.509	139.558	-157.256	-628.93	-40.832
263	13.751	-1033.905	295.443	172.619	-1033.905	295.443	172.619	-965.218	250.243	315.418	-1007.45	266.119	3.544	-812.498	30.99	348.936	-987.878	30.419	-114.413	-850.107	198.796	204.416	-934.605	211.924	1.448	-765.709	-129.621	118.509	-760.451	-138.226	196.498	-771.54	-120.078	32.023	-387.855	-216.164	233.632	-400.922	-192.906	-30.708	-342.785	-575.324	158.143	-317.084	-549.082	-32.626	-199.311	-654.153	138.762	-156.642	-628.289	-41.945
264	13.796	-1027.819	294.014	172.857	-1027.819	294.014	172.857	-960.162	249.001	314.93	-1007.784	262.43	4.461	-805.461	33.124	345.538	-996.955	28.272	-113.418	-849.76	202.202	207.041	-937.684	207.742	-0.399	-765.29	-129.88	120.04	-759.762	-138.204	197.467	-771.42	-120.65	34.178	-389.486	-215.799	229.795	-403.01	-189.252	-29.457	-345.102	-572.71	156.331	-319.82	-542.846	-32.892	-203.39	-652.044	136.173	-161.045	-622.17	-44.614
265	13.843	-1029.464	294.033	176.522	-1029.464	294.033	176.522	-958.773	248.195	317.1	-1011.691	263.515	7.663	-799.101	35.05	341.772	-1000.678	29.721	-111.174	-848.753	206.318	207.696	-940.882	209.215	1.717	-765.462	-129.23	121.553	-759.7	-137.568	198.995	-771.853	-119.983	35.673	-389.377	-216.816	228.617	-403.424	-186.803	-30.682	-344.151	-573.467	153.619	-321.713	-540.893	-35.219	-202.074	-651.806	131.648	-162.962	-620.135	-48.825
266	13.888	-1029.796	291.233	174.827	-1029.796	291.233	174.827	-952.751	245.394	309.473	-1006.468	259.692	9.845	-791.495	40.579	344.426	-1004.886	29.26	-106.466	-843.83	211.623	217.394	-939.474	203.963	3.701	-761.658	-118.721	123.4	-754.979	-125.379	199.622	-769.064	-111.338	38.873	-394.219	-219.212	223.767	-412.549	-192.354	-39.672	-339.559	-569.249	153.717	-325.682	-539.004	-36.966	-197.18	-639.632	127.346	-167.082	-610.951	-54.037
267	13.933	-1025.461	293.494	175.347	-1025.461	293.494	175.347	-947.036	244.072	306.115	-1004.218	259.209	11.587	-788.91	40.473	342.092	-1007.586	29.603	-100.342	-839.792	211.268	218.069	-939.044	203.923	3.99	-759.808	-107.562	111.846	-751.199	-115.637	186.933	-769.356	-98.607	28.578	-395.644	-214.807	207.171	-419.413	-186.438	-53.785	-337.265	-559.034	130.781	-332.334	-529.202	-58.333	-195.774	-627.344	104.29	-175.411	-600.192	-76.42
268	13.979	-1024.703	293.479	179.597	-1024.703	293.479	179.597	-940.929	244.773	308.49	-1010.52	261.568	14.003	-778.987	41.775	342.037	-1010.914	30.681	-98.815	-834.794	213.757	219.514	-943.392	208.519	2.838	-757.055	-109	107.278	-745.502	-116.521	182.486	-769.866	-100.66	23.876	-385.603	-209.709	191.557	-419.023	-181.181	-71.084	-330.917	-556.244	112.93	-333.108	-526.38	-77.31	-189.603	-624.283	79.888	-176.06	-597.538	-102.241
269	14.023	-1026.308	295.218	183.092	-1026.308	295.218	183.092	-938.098	246.348	310.439	-1016.765	262.129	16.351	-775.759	41.245	340.963	-1012.791	30.309	-97.863	-832.76	214.944	219.16	-947.884	211.2	2.75	-756.057	-109.266	108.991	-742.605	-115.26	184.47	-770.975	-102.618	25.288	-379.91	-206.542	180.685	-421.429	-182.402	-82.641	-323.347	-555.691	105.509	-333.447	-529.239	-86.01	-180.913	-621.162	67.903	-175.521	-598.605	-116.804
270	14.071	-1019.465	291.682	187.8	-1019.465	291.682	187.8	-931.146	244.551	311.522	-1021.467	258.257	24.79	-770.525	45.272	338.081	-1011.498	36.151	-95.002	-828.537	215.843	221.401	-952.296	214.645	2.795	-746.886	-97.868	113.389	-732.913	-103.039	187.04	-762.38	-92.133	31.713	-381.793	-203.278	171.701	-423.954	-176.197	-78.999	-318.185	-543.279	99.618	-335.373	-514.374	-85.852	-179.561	-606.863	60.207	-182.641	-584.069	-119.436
271	14.121	-1018.073	291.143	190.826	-1018.073	291.143	190.826	-929.564	246.093	314.963	-1026.01	256.886	28.834	-769.672	46.429	339.973	-1011.069	37.224	-94.259	-825.493	217	222.703	-955.3	215.889	4.683	-749.779	-102.625	121.901	-734.618	-105.626	195.345	-766.592	-99.298	40.455	-381.415	-194.676	171.589	-427.997	-172.111	-76.102	-318.289	-536.063	108.248	-340.055	-510.088	-76.557	-179.989	-598.463	66.629	-188.266	-579.05	-114.578
272	14.192	-1013.729	286.952	192.639	-1013.729	286.952	192.639	-925.255	244.28	314.487	-1033.491	252.749	34.946	-767.053	48.188	336.647	-1009.02	42.735	-95.106	-822.776	217.842	224.288	-961.682	219.616	4.284	-754.456	-105.501	127.383	-737.204	-105.867	199.196	-773.589	-105.095	47.744	-389.476	-189.868	166.498	-441.512	-172.128	-72.878	-325.674	-527.138	113.693	-356.651	-505.124	-67.96	-189.93	-587.773	70.469	-208.963	-573.535	-110.699
273	14.241	-1011.862	283.452	195.103	-1011.862	283.452	195.103	-922.439	245.528	316.963	-1054.195	239.887	44.593	-767.111	48.009	337.027	-1002.704	46.403	-100.726	-817.638	220.611	228.081	-968.083	223.839	1.418	-758.079	-112.546	131.312	-735.765	-108.815	201.359	-782.824	-116.685	53.633	-390.638	-185.003	144.279	-454.793	-169.869	-80.6	-330.961	-523.922	107.202	-378.011	-503.369	-66.35	-197.912	-587.791	62.153	-235.117	-575.762	-116.041
274	14.288	-1011.886	283.465	195.099	-1011.886	283.465	195.099	-922.437	245.544	316.95	-1054.239	239.897	44.59	-767.087	48.028	336.988	-1002.666	46.462	-100.78	-817.646	220.634	228.048	-968.151	223.896	1.416	-758.083	-112.544	131.302	-735.768	-108.811	201.352	-782.831	-116.684	53.62	-390.668	-185.018	144.051	-454.882	-170.047	-80.779	-331.128	-523.979	107.025	-378.585	-503.661	-66.288	-198.133	-587.912	61.885	-235.826	-576.323	-115.996
